STARTFONT 2.3
FONT -FontForge-Shadows Into Light-Book-R-Normal--12-120-72-72-P-50-ISO10646-1
SIZE 12 72 72  2
FONTBOUNDINGBOX 17 19 -2 -5
COMMENT "Generated by fontforge, http://fontforge.sourceforge.net"
COMMENT "Copyright (c) 2010, Kimberly Geswein (kimberlygeswein.com)"
STARTPROPERTIES 40
FOUNDRY "FontForge"
FAMILY_NAME "Shadows Into Light"
WEIGHT_NAME "Book"
SLANT "R"
SETWIDTH_NAME "Normal"
ADD_STYLE_NAME ""
PIXEL_SIZE 12
POINT_SIZE 120
RESOLUTION_X 72
RESOLUTION_Y 72
SPACING "P"
AVERAGE_WIDTH 50
CHARSET_REGISTRY "ISO10646"
CHARSET_ENCODING "1"
FONTNAME_REGISTRY ""
CHARSET_COLLECTIONS "ISO8859-2 ISO8859-9 ISO8859-4 ISO10646-1"
BITS_PER_PIXEL 2
FONT_NAME "ShadowsIntoLight"
FACE_NAME "Shadows Into Light"
COPYRIGHT "Copyright (c) 2010, Kimberly Geswein (kimberlygeswein.com)"
FONT_VERSION "001.000"
FONT_ASCENT 10
FONT_DESCENT 2
UNDERLINE_POSITION 0
UNDERLINE_THICKNESS 0
X_HEIGHT 6
CAP_HEIGHT 7
RAW_ASCENT 799
RAW_DESCENT 200
NORM_SPACE 5
RELATIVE_WEIGHT 40
RELATIVE_SETWIDTH 50
SUPERSCRIPT_X 0
SUPERSCRIPT_Y 5
SUPERSCRIPT_SIZE 7
SUBSCRIPT_X 0
SUBSCRIPT_Y 1
SUBSCRIPT_SIZE 7
AVG_LOWERCASE_WIDTH 45
AVG_UPPERCASE_WIDTH 59
ENDPROPERTIES
CHARS 352
STARTCHAR space
ENCODING 32
SWIDTH 450 0
DWIDTH 5 0
BBX 1 1 0 0
BITMAP
00
ENDCHAR
STARTCHAR exclam
ENCODING 33
SWIDTH 137 0
DWIDTH 2 0
BBX 2 10 0 0
BITMAP
40
80
80
80
80
80
00
00
00
10
ENDCHAR
STARTCHAR quotedbl
ENCODING 34
SWIDTH 212 0
DWIDTH 3 0
BBX 2 4 0 6
BITMAP
40
90
90
50
ENDCHAR
STARTCHAR numbersign
ENCODING 35
SWIDTH 450 0
DWIDTH 5 0
BBX 4 7 1 1
BITMAP
04
88
9D
99
5D
A8
54
ENDCHAR
STARTCHAR dollar
ENCODING 36
SWIDTH 445 0
DWIDTH 5 0
BBX 5 10 0 -1
BITMAP
0800
0900
2800
8800
9900
0880
0540
0900
0500
0200
ENDCHAR
STARTCHAR percent
ENCODING 37
SWIDTH 450 0
DWIDTH 5 0
BBX 5 10 0 0
BITMAP
0100
0200
9600
9500
4800
0880
0580
0580
1000
1000
ENDCHAR
STARTCHAR ampersand
ENCODING 38
SWIDTH 356 0
DWIDTH 4 0
BBX 4 6 0 1
BITMAP
04
04
5A
5C
A8
04
ENDCHAR
STARTCHAR quotesingle
ENCODING 39
SWIDTH 155 0
DWIDTH 2 0
BBX 2 4 0 4
BITMAP
40
90
50
40
ENDCHAR
STARTCHAR parenleft
ENCODING 40
SWIDTH 291 0
DWIDTH 4 0
BBX 3 10 0 0
BITMAP
04
14
20
50
80
80
80
80
50
24
ENDCHAR
STARTCHAR parenright
ENCODING 41
SWIDTH 241 0
DWIDTH 3 0
BBX 3 9 0 0
BITMAP
40
20
14
04
04
04
14
20
10
ENDCHAR
STARTCHAR asterisk
ENCODING 42
SWIDTH 481 0
DWIDTH 6 0
BBX 6 6 0 1
BITMAP
0400
0940
6E90
6E00
2880
5400
ENDCHAR
STARTCHAR plus
ENCODING 43
SWIDTH 466 0
DWIDTH 6 0
BBX 6 6 0 1
BITMAP
0400
0800
0950
5D00
0800
0400
ENDCHAR
STARTCHAR comma
ENCODING 44
SWIDTH 112 0
DWIDTH 1 0
BBX 2 3 0 -1
BITMAP
40
90
80
ENDCHAR
STARTCHAR hyphen
ENCODING 45
SWIDTH 399 0
DWIDTH 5 0
BBX 5 2 0 2
BITMAP
0640
6400
ENDCHAR
STARTCHAR period
ENCODING 46
SWIDTH 128 0
DWIDTH 2 0
BBX 1 1 0 0
BITMAP
40
ENDCHAR
STARTCHAR slash
ENCODING 47
SWIDTH 306 0
DWIDTH 4 0
BBX 3 9 0 -1
BITMAP
04
08
04
10
20
10
50
80
40
ENDCHAR
STARTCHAR zero
ENCODING 48
SWIDTH 308 0
DWIDTH 4 0
BBX 4 7 0 0
BITMAP
14
14
45
81
45
44
28
ENDCHAR
STARTCHAR one
ENCODING 49
SWIDTH 112 0
DWIDTH 1 0
BBX 1 8 0 0
BITMAP
40
40
80
80
80
80
80
40
ENDCHAR
STARTCHAR two
ENCODING 50
SWIDTH 512 0
DWIDTH 6 0
BBX 6 7 0 0
BITMAP
1900
5200
0200
0500
0800
0990
1900
ENDCHAR
STARTCHAR three
ENCODING 51
SWIDTH 461 0
DWIDTH 6 0
BBX 6 8 0 0
BITMAP
6600
4100
0800
2980
0050
0080
0240
0800
ENDCHAR
STARTCHAR four
ENCODING 52
SWIDTH 503 0
DWIDTH 6 0
BBX 6 9 0 0
BITMAP
0240
0740
0940
1540
2290
9540
0140
0140
0140
ENDCHAR
STARTCHAR five
ENCODING 53
SWIDTH 478 0
DWIDTH 6 0
BBX 5 8 0 0
BITMAP
A540
9000
4100
9A40
5140
0200
0500
0800
ENDCHAR
STARTCHAR six
ENCODING 54
SWIDTH 375 0
DWIDTH 5 0
BBX 4 10 0 0
BITMAP
10
20
20
50
40
86
89
91
A5
28
ENDCHAR
STARTCHAR seven
ENCODING 55
SWIDTH 458 0
DWIDTH 6 0
BBX 5 9 0 0
BITMAP
1A80
5080
0140
0200
0200
0200
0200
0200
0200
ENDCHAR
STARTCHAR eight
ENCODING 56
SWIDTH 333 0
DWIDTH 4 0
BBX 4 9 0 0
BITMAP
04
2D
81
85
58
28
14
11
29
ENDCHAR
STARTCHAR nine
ENCODING 57
SWIDTH 475 0
DWIDTH 6 0
BBX 6 8 0 0
BITMAP
0A80
2280
4680
A880
5040
0040
0050
0050
ENDCHAR
STARTCHAR colon
ENCODING 58
SWIDTH 120 0
DWIDTH 1 0
BBX 1 4 0 1
BITMAP
40
00
00
40
ENDCHAR
STARTCHAR semicolon
ENCODING 59
SWIDTH 121 0
DWIDTH 1 0
BBX 2 5 0 -1
BITMAP
40
00
40
90
80
ENDCHAR
STARTCHAR less
ENCODING 60
SWIDTH 409 0
DWIDTH 5 0
BBX 5 7 0 1
BITMAP
0040
0240
0900
6000
2400
0640
0040
ENDCHAR
STARTCHAR equal
ENCODING 61
SWIDTH 433 0
DWIDTH 5 0
BBX 5 3 0 1
BITMAP
6900
0580
6400
ENDCHAR
STARTCHAR greater
ENCODING 62
SWIDTH 450 0
DWIDTH 5 0
BBX 5 7 0 1
BITMAP
6000
1900
0180
0140
0900
2400
4000
ENDCHAR
STARTCHAR question
ENCODING 63
SWIDTH 445 0
DWIDTH 5 0
BBX 5 11 0 0
BITMAP
2A80
5080
0080
0200
0800
1400
1900
0000
0000
0000
0400
ENDCHAR
STARTCHAR at
ENCODING 64
SWIDTH 945 0
DWIDTH 11 0
BBX 11 11 0 0
BITMAP
002A40
018050
050020
146820
216420
515420
898680
850000
900008
200090
1AA900
ENDCHAR
STARTCHAR A
ENCODING 65
SWIDTH 390 0
DWIDTH 5 0
BBX 6 9 0 0
BITMAP
2000
3400
2800
5400
5650
5740
6600
8140
4040
ENDCHAR
STARTCHAR B
ENCODING 66
SWIDTH 537 0
DWIDTH 6 0
BBX 6 9 0 0
BITMAP
0640
A480
5200
5A60
3810
2050
2180
2600
1000
ENDCHAR
STARTCHAR C
ENCODING 67
SWIDTH 487 0
DWIDTH 6 0
BBX 6 9 0 0
BITMAP
0600
1400
2000
1000
5000
8010
8090
8140
6900
ENDCHAR
STARTCHAR D
ENCODING 68
SWIDTH 554 0
DWIDTH 7 0
BBX 7 9 0 0
BITMAP
1500
75A0
2014
2014
2020
2050
1180
1600
0800
ENDCHAR
STARTCHAR E
ENCODING 69
SWIDTH 474 0
DWIDTH 6 0
BBX 6 9 0 0
BITMAP
4140
6800
5000
5140
6900
2000
2090
2600
2400
ENDCHAR
STARTCHAR F
ENCODING 70
SWIDTH 428 0
DWIDTH 5 0
BBX 5 9 0 0
BITMAP
0040
8640
A400
8000
9040
9900
A000
5000
5000
ENDCHAR
STARTCHAR G
ENCODING 71
SWIDTH 591 0
DWIDTH 7 0
BBX 7 9 0 -1
BITMAP
0180
0900
1400
2068
5024
8070
81A0
6920
0020
ENDCHAR
STARTCHAR H
ENCODING 72
SWIDTH 424 0
DWIDTH 5 0
BBX 5 8 0 0
BITMAP
8200
8100
8140
8240
6940
5080
4080
5080
ENDCHAR
STARTCHAR I
ENCODING 73
SWIDTH 153 0
DWIDTH 2 0
BBX 2 9 0 0
BITMAP
50
50
50
50
10
10
10
10
10
ENDCHAR
STARTCHAR J
ENCODING 74
SWIDTH 371 0
DWIDTH 4 0
BBX 4 10 0 -1
BITMAP
01
01
02
02
02
02
02
42
42
15
ENDCHAR
STARTCHAR K
ENCODING 75
SWIDTH 524 0
DWIDTH 6 0
BBX 6 8 0 0
BITMAP
8040
5200
5500
5800
3000
3550
2550
1000
ENDCHAR
STARTCHAR L
ENCODING 76
SWIDTH 537 0
DWIDTH 6 0
BBX 7 8 0 0
BITMAP
4000
9000
9000
9000
5000
5024
5280
6800
ENDCHAR
STARTCHAR M
ENCODING 77
SWIDTH 682 0
DWIDTH 8 0
BBX 8 9 0 0
BITMAP
A008
6418
5818
5524
5254
5185
6045
6002
2002
ENDCHAR
STARTCHAR N
ENCODING 78
SWIDTH 541 0
DWIDTH 7 0
BBX 6 9 0 0
BITMAP
0050
4020
A020
6820
5520
5220
20A0
2030
2010
ENDCHAR
STARTCHAR O
ENCODING 79
SWIDTH 382 0
DWIDTH 5 0
BBX 5 8 0 0
BITMAP
1A00
2140
5140
8140
8140
8200
8600
7800
ENDCHAR
STARTCHAR P
ENCODING 80
SWIDTH 508 0
DWIDTH 6 0
BBX 6 10 0 0
BITMAP
1680
7460
6020
1080
2600
3400
2000
2000
2000
1000
ENDCHAR
STARTCHAR Q
ENCODING 81
SWIDTH 512 0
DWIDTH 6 0
BBX 6 9 0 0
BITMAP
1A80
2050
5010
8010
8110
8150
80C0
50D0
1A20
ENDCHAR
STARTCHAR R
ENCODING 82
SWIDTH 503 0
DWIDTH 6 0
BBX 6 10 0 0
BITMAP
4000
A9A0
9050
8240
A800
A000
9900
8190
8010
4000
ENDCHAR
STARTCHAR S
ENCODING 83
SWIDTH 541 0
DWIDTH 7 0
BBX 6 9 0 0
BITMAP
0280
1400
5000
8000
8000
1550
0020
0190
1900
ENDCHAR
STARTCHAR T
ENCODING 84
SWIDTH 595 0
DWIDTH 7 0
BBX 8 9 0 0
BITMAP
0055
6A94
0080
0080
0080
0080
0080
0080
0040
ENDCHAR
STARTCHAR U
ENCODING 85
SWIDTH 450 0
DWIDTH 5 0
BBX 5 9 0 -1
BITMAP
0040
8080
80C0
80C0
81C0
8280
5280
2840
0040
ENDCHAR
STARTCHAR V
ENCODING 86
SWIDTH 524 0
DWIDTH 6 0
BBX 6 9 0 0
BITMAP
0010
0020
8020
5050
2080
1480
0880
0640
0240
ENDCHAR
STARTCHAR W
ENCODING 87
SWIDTH 878 0
DWIDTH 11 0
BBX 10 9 0 0
BITMAP
000010
401020
903020
205450
208880
248880
154280
0A0240
0A0000
ENDCHAR
STARTCHAR X
ENCODING 88
SWIDTH 461 0
DWIDTH 6 0
BBX 5 8 0 0
BITMAP
5080
2140
1600
0D00
0D00
2600
5140
4080
ENDCHAR
STARTCHAR Y
ENCODING 89
SWIDTH 483 0
DWIDTH 6 0
BBX 6 9 0 0
BITMAP
0010
4040
5080
2480
0A40
0300
0600
0500
0800
ENDCHAR
STARTCHAR Z
ENCODING 90
SWIDTH 670 0
DWIDTH 8 0
BBX 8 9 0 0
BITMAP
1500
5568
0060
0080
0240
0900
1800
2000
BAAA
ENDCHAR
STARTCHAR bracketleft
ENCODING 91
SWIDTH 470 0
DWIDTH 6 0
BBX 5 15 0 -1
BITMAP
1540
9500
8000
8000
4000
5000
5000
5000
2000
2000
2000
2000
2000
2000
2A40
ENDCHAR
STARTCHAR backslash
ENCODING 92
SWIDTH 554 0
DWIDTH 7 0
BBX 7 12 0 0
BITMAP
8000
1000
1000
0800
0800
0500
0200
0140
0080
0050
0020
0014
ENDCHAR
STARTCHAR bracketright
ENCODING 93
SWIDTH 512 0
DWIDTH 6 0
BBX 6 15 0 -1
BITMAP
AA90
0050
0050
0050
0050
0050
0050
0050
0050
0050
0020
0020
0020
0020
01A0
ENDCHAR
STARTCHAR asciicircum
ENCODING 94
SWIDTH 390 0
DWIDTH 5 0
BBX 5 3 0 8
BITMAP
1800
2200
4140
ENDCHAR
STARTCHAR underscore
ENCODING 95
SWIDTH 612 0
DWIDTH 7 0
BBX 7 2 0 0
BITMAP
01A8
6900
ENDCHAR
STARTCHAR grave
ENCODING 96
SWIDTH 155 0
DWIDTH 2 0
BBX 2 2 0 7
BITMAP
40
50
ENDCHAR
STARTCHAR a
ENCODING 97
SWIDTH 366 0
DWIDTH 4 0
BBX 4 7 0 0
BITMAP
05
1A
22
5A
8A
A2
91
ENDCHAR
STARTCHAR b
ENCODING 98
SWIDTH 442 0
DWIDTH 5 0
BBX 5 10 0 0
BITMAP
5000
5000
5000
5000
5A80
6080
9080
8240
8900
6400
ENDCHAR
STARTCHAR c
ENCODING 99
SWIDTH 390 0
DWIDTH 5 0
BBX 5 7 0 0
BITMAP
2800
5800
8000
8000
8140
4200
2900
ENDCHAR
STARTCHAR d
ENCODING 100
SWIDTH 316 0
DWIDTH 4 0
BBX 4 12 0 -1
BITMAP
04
05
05
05
05
29
95
85
89
89
A1
01
ENDCHAR
STARTCHAR e
ENCODING 101
SWIDTH 461 0
DWIDTH 6 0
BBX 5 7 0 0
BITMAP
0400
2600
2600
A400
9080
5140
2900
ENDCHAR
STARTCHAR f
ENCODING 102
SWIDTH 345 0
DWIDTH 4 0
BBX 4 11 0 0
BITMAP
18
25
20
20
20
2A
60
20
20
20
20
ENDCHAR
STARTCHAR g
ENCODING 103
SWIDTH 437 0
DWIDTH 5 0
BBX 5 12 0 -5
BITMAP
0600
1640
2280
5580
8880
A480
1080
0080
0080
0140
0200
1900
ENDCHAR
STARTCHAR h
ENCODING 104
SWIDTH 466 0
DWIDTH 6 0
BBX 6 9 0 0
BITMAP
4000
8000
8000
8680
8D50
9850
A050
A050
4050
ENDCHAR
STARTCHAR i
ENCODING 105
SWIDTH 132 0
DWIDTH 2 0
BBX 1 9 0 0
BITMAP
40
00
40
80
80
80
80
80
40
ENDCHAR
STARTCHAR j
ENCODING 106
SWIDTH 112 0
DWIDTH 1 0
BBX 4 14 -2 -4
BITMAP
04
00
00
00
08
08
08
08
08
05
05
05
48
68
ENDCHAR
STARTCHAR k
ENCODING 107
SWIDTH 428 0
DWIDTH 5 0
BBX 5 9 0 0
BITMAP
5000
5000
5080
5240
9600
9800
A000
A900
8180
ENDCHAR
STARTCHAR l
ENCODING 108
SWIDTH 137 0
DWIDTH 2 0
BBX 2 10 0 0
BITMAP
80
80
40
40
40
50
50
50
50
50
ENDCHAR
STARTCHAR m
ENCODING 109
SWIDTH 579 0
DWIDTH 7 0
BBX 7 7 0 0
BITMAP
8000
9870
69A0
6260
6310
6114
5004
ENDCHAR
STARTCHAR n
ENCODING 110
SWIDTH 483 0
DWIDTH 6 0
BBX 6 7 0 0
BITMAP
4280
8980
9850
6450
7050
6050
6010
ENDCHAR
STARTCHAR o
ENCODING 111
SWIDTH 266 0
DWIDTH 3 0
BBX 3 7 0 0
BITMAP
20
54
88
88
88
88
A0
ENDCHAR
STARTCHAR p
ENCODING 112
SWIDTH 482 0
DWIDTH 6 0
BBX 6 9 0 -3
BITMAP
8690
A050
8180
8600
A400
9000
8000
8000
8000
ENDCHAR
STARTCHAR q
ENCODING 113
SWIDTH 408 0
DWIDTH 5 0
BBX 5 10 0 -4
BITMAP
0500
2600
5200
8240
8940
5480
0080
0080
0080
0040
ENDCHAR
STARTCHAR r
ENCODING 114
SWIDTH 396 0
DWIDTH 5 0
BBX 5 6 0 0
BITMAP
8A40
9400
6400
7000
3000
2000
ENDCHAR
STARTCHAR s
ENCODING 115
SWIDTH 366 0
DWIDTH 4 0
BBX 5 6 0 0
BITMAP
1900
5000
8100
6A40
0200
1800
ENDCHAR
STARTCHAR t
ENCODING 116
SWIDTH 268 0
DWIDTH 3 0
BBX 4 9 -1 0
BITMAP
14
14
1A
79
14
14
14
14
08
ENDCHAR
STARTCHAR u
ENCODING 117
SWIDTH 387 0
DWIDTH 5 0
BBX 4 6 0 0
BITMAP
41
82
82
83
5B
2A
ENDCHAR
STARTCHAR v
ENCODING 118
SWIDTH 354 0
DWIDTH 4 0
BBX 4 7 0 0
BITMAP
01
02
82
62
26
0A
06
ENDCHAR
STARTCHAR w
ENCODING 119
SWIDTH 566 0
DWIDTH 7 0
BBX 7 6 0 0
BITMAP
8614
5654
2894
2C64
0C24
0800
ENDCHAR
STARTCHAR x
ENCODING 120
SWIDTH 454 0
DWIDTH 5 0
BBX 5 8 0 -1
BITMAP
0600
4500
6500
1C00
0E00
1980
1440
1000
ENDCHAR
STARTCHAR y
ENCODING 121
SWIDTH 363 0
DWIDTH 4 0
BBX 4 11 0 -5
BITMAP
41
52
22
1A
0B
03
02
02
02
02
01
ENDCHAR
STARTCHAR z
ENCODING 122
SWIDTH 618 0
DWIDTH 7 0
BBX 8 6 0 0
BITMAP
0680
6540
0200
0500
0819
0E94
ENDCHAR
STARTCHAR braceleft
ENCODING 123
SWIDTH 348 0
DWIDTH 4 0
BBX 4 11 0 -1
BITMAP
25
20
20
14
A0
20
A0
80
80
90
28
ENDCHAR
STARTCHAR bar
ENCODING 124
SWIDTH 137 0
DWIDTH 2 0
BBX 2 10 0 0
BITMAP
80
80
40
40
40
50
50
50
50
50
ENDCHAR
STARTCHAR braceright
ENCODING 125
SWIDTH 348 0
DWIDTH 4 0
BBX 4 12 0 -2
BITMAP
64
08
08
14
09
08
09
02
02
05
18
10
ENDCHAR
STARTCHAR asciitilde
ENCODING 126
SWIDTH 458 0
DWIDTH 6 0
BBX 5 3 0 6
BITMAP
1440
5A80
0100
ENDCHAR
STARTCHAR nonbreakingspace
ENCODING 160
SWIDTH 450 0
DWIDTH 5 0
BBX 1 1 0 0
BITMAP
00
ENDCHAR
STARTCHAR exclamdown
ENCODING 161
SWIDTH 137 0
DWIDTH 2 0
BBX 2 8 0 -2
BITMAP
10
00
00
80
80
80
40
40
ENDCHAR
STARTCHAR cent
ENCODING 162
SWIDTH 394 0
DWIDTH 5 0
BBX 5 9 0 -1
BITMAP
0400
2D00
5500
8400
8400
8540
4600
2900
0400
ENDCHAR
STARTCHAR sterling
ENCODING 163
SWIDTH 539 0
DWIDTH 6 0
BBX 6 8 0 0
BITMAP
0290
0900
0800
A900
2000
2000
2140
2960
ENDCHAR
STARTCHAR currency
ENCODING 164
SWIDTH 500 0
DWIDTH 6 0
BBX 5 7 0 1
BITMAP
0080
2A80
1540
1140
1540
2B40
5040
ENDCHAR
STARTCHAR yen
ENCODING 165
SWIDTH 478 0
DWIDTH 6 0
BBX 4 10 1 0
BITMAP
42
86
68
38
14
6A
64
A9
14
14
ENDCHAR
STARTCHAR brokenbar
ENCODING 166
SWIDTH 137 0
DWIDTH 2 0
BBX 2 10 0 0
BITMAP
80
80
40
40
00
50
50
50
50
50
ENDCHAR
STARTCHAR section
ENCODING 167
SWIDTH 366 0
DWIDTH 4 0
BBX 5 9 0 0
BITMAP
1900
5000
8000
AB00
5200
8900
6A40
0200
1800
ENDCHAR
STARTCHAR dieresis
ENCODING 168
SWIDTH 306 0
DWIDTH 4 0
BBX 2 1 1 8
BITMAP
50
ENDCHAR
STARTCHAR copyright
ENCODING 169
SWIDTH 485 0
DWIDTH 6 0
BBX 6 8 0 0
BITMAP
0A80
2450
6A60
9420
9490
8AC0
8140
7900
ENDCHAR
STARTCHAR ordfeminine
ENCODING 170
SWIDTH 227 0
DWIDTH 3 0
BBX 3 3 0 2
BITMAP
64
54
84
ENDCHAR
STARTCHAR guillemotleft
ENCODING 171
SWIDTH 652 0
DWIDTH 8 0
BBX 7 7 0 1
BITMAP
0044
0264
0990
6200
2680
0664
0040
ENDCHAR
STARTCHAR logicalnot
ENCODING 172
SWIDTH 539 0
DWIDTH 6 0
BBX 5 4 1 1
BITMAP
6A80
0080
0080
0040
ENDCHAR
STARTCHAR uni00AD
ENCODING 173
SWIDTH 399 0
DWIDTH 5 0
BBX 5 2 0 2
BITMAP
0640
6400
ENDCHAR
STARTCHAR registered
ENCODING 174
SWIDTH 382 0
DWIDTH 5 0
BBX 6 8 0 0
BITMAP
0B40
1080
6950
9660
9960
9590
8180
7A00
ENDCHAR
STARTCHAR macron
ENCODING 175
SWIDTH 399 0
DWIDTH 5 0
BBX 5 1 0 8
BITMAP
6A40
ENDCHAR
STARTCHAR degree
ENCODING 176
SWIDTH 201 0
DWIDTH 2 0
BBX 2 3 0 4
BITMAP
50
90
10
ENDCHAR
STARTCHAR plusminus
ENCODING 177
SWIDTH 466 0
DWIDTH 6 0
BBX 5 6 0 1
BITMAP
0400
0800
0940
5D00
0800
1A40
ENDCHAR
STARTCHAR twosuperior
ENCODING 178
SWIDTH 318 0
DWIDTH 4 0
BBX 3 4 0 2
BITMAP
50
10
10
24
ENDCHAR
STARTCHAR threesuperior
ENCODING 179
SWIDTH 280 0
DWIDTH 3 0
BBX 3 5 0 2
BITMAP
50
10
54
04
10
ENDCHAR
STARTCHAR acute
ENCODING 180
SWIDTH 155 0
DWIDTH 2 0
BBX 2 2 0 7
BITMAP
10
80
ENDCHAR
STARTCHAR mu
ENCODING 181
SWIDTH 387 0
DWIDTH 5 0
BBX 4 9 0 -2
BITMAP
41
82
82
83
97
AA
90
40
40
ENDCHAR
STARTCHAR paragraph
ENCODING 182
SWIDTH 447 0
DWIDTH 5 0
BBX 5 8 0 0
BITMAP
1A40
7E80
BA80
1280
0280
0280
0280
0140
ENDCHAR
STARTCHAR periodcentered
ENCODING 183
SWIDTH 128 0
DWIDTH 2 0
BBX 1 2 0 2
BITMAP
40
40
ENDCHAR
STARTCHAR cedilla
ENCODING 184
SWIDTH 322 0
DWIDTH 4 0
BBX 4 4 0 -4
BITMAP
50
28
09
24
ENDCHAR
STARTCHAR onesuperior
ENCODING 185
SWIDTH 112 0
DWIDTH 1 0
BBX 1 4 0 2
BITMAP
40
40
80
40
ENDCHAR
STARTCHAR ordmasculine
ENCODING 186
SWIDTH 212 0
DWIDTH 3 0
BBX 3 4 0 2
BITMAP
10
54
84
90
ENDCHAR
STARTCHAR guillemotright
ENCODING 187
SWIDTH 625 0
DWIDTH 8 0
BBX 7 7 0 1
BITMAP
6640
19A0
0188
0154
0990
2640
4000
ENDCHAR
STARTCHAR onequarter
ENCODING 188
SWIDTH 678 0
DWIDTH 8 0
BBX 7 10 0 -1
BITMAP
0100
0100
4400
4824
44A4
9554
6664
2014
5010
4000
ENDCHAR
STARTCHAR onehalf
ENCODING 189
SWIDTH 693 0
DWIDTH 8 0
BBX 7 9 0 -1
BITMAP
0200
4200
4100
4590
4910
5450
1084
2090
1000
ENDCHAR
STARTCHAR threequarters
ENCODING 190
SWIDTH 868 0
DWIDTH 10 0
BBX 8 10 0 -1
BITMAP
0004
5908
041D
2929
0075
027A
0895
0085
0045
0100
ENDCHAR
STARTCHAR questiondown
ENCODING 191
SWIDTH 541 0
DWIDTH 7 0
BBX 5 10 1 0
BITMAP
0400
0000
0000
0000
1600
0500
1800
5000
8040
AA40
ENDCHAR
STARTCHAR Agrave
ENCODING 192
SWIDTH 390 0
DWIDTH 5 0
BBX 6 11 0 0
BITMAP
1000
0400
2000
2800
2800
2500
2250
6740
6600
5140
4040
ENDCHAR
STARTCHAR Aacute
ENCODING 193
SWIDTH 390 0
DWIDTH 5 0
BBX 6 11 0 0
BITMAP
1000
2000
2000
3400
2800
5400
5650
5740
6600
8140
4040
ENDCHAR
STARTCHAR Acircumflex
ENCODING 194
SWIDTH 390 0
DWIDTH 5 0
BBX 7 12 -1 0
BITMAP
0900
2200
5040
0800
0D00
0A00
1500
1594
15D0
1980
2050
1010
ENDCHAR
STARTCHAR Atilde
ENCODING 195
SWIDTH 390 0
DWIDTH 5 0
BBX 6 13 0 0
BITMAP
6000
9A00
0400
0000
2000
3400
2800
5400
5650
5740
6600
8140
4040
ENDCHAR
STARTCHAR Adieresis
ENCODING 196
SWIDTH 390 0
DWIDTH 5 0
BBX 6 11 0 0
BITMAP
5800
0000
2000
3400
2800
5400
5650
5740
6600
8140
4040
ENDCHAR
STARTCHAR Aring
ENCODING 197
SWIDTH 390 0
DWIDTH 5 0
BBX 6 11 0 0
BITMAP
6400
8800
7400
3400
2800
5400
5650
5740
6600
8140
4040
ENDCHAR
STARTCHAR AE
ENCODING 198
SWIDTH 708 0
DWIDTH 9 0
BBX 8 9 0 0
BITMAP
2119
36A0
2940
5544
56A0
5780
6642
8198
4190
ENDCHAR
STARTCHAR Ccedilla
ENCODING 199
SWIDTH 487 0
DWIDTH 6 0
BBX 6 13 0 -4
BITMAP
0600
1400
2000
1000
5000
8010
8090
8140
6900
1400
0D00
0240
0A00
ENDCHAR
STARTCHAR Egrave
ENCODING 200
SWIDTH 474 0
DWIDTH 6 0
BBX 6 11 0 0
BITMAP
1400
0800
4140
6800
5000
5140
6900
2000
2090
2600
2400
ENDCHAR
STARTCHAR Eacute
ENCODING 201
SWIDTH 474 0
DWIDTH 6 0
BBX 6 11 0 0
BITMAP
0100
0800
4140
6800
5000
5140
6900
2000
2090
2600
2400
ENDCHAR
STARTCHAR Ecircumflex
ENCODING 202
SWIDTH 474 0
DWIDTH 6 0
BBX 6 12 0 0
BITMAP
0900
1540
2040
4140
6800
5000
5140
6900
2000
2090
2600
2400
ENDCHAR
STARTCHAR Edieresis
ENCODING 203
SWIDTH 474 0
DWIDTH 6 0
BBX 6 11 0 0
BITMAP
1600
0000
4140
6800
5000
5140
6900
2000
2090
2600
2400
ENDCHAR
STARTCHAR Igrave
ENCODING 204
SWIDTH 153 0
DWIDTH 2 0
BBX 2 11 0 0
BITMAP
40
50
50
50
50
50
10
10
10
10
10
ENDCHAR
STARTCHAR Iacute
ENCODING 205
SWIDTH 153 0
DWIDTH 2 0
BBX 2 12 0 0
BITMAP
10
50
00
50
50
50
50
10
10
10
10
10
ENDCHAR
STARTCHAR Icircumflex
ENCODING 206
SWIDTH 153 0
DWIDTH 2 0
BBX 4 12 -1 0
BITMAP
28
55
81
14
14
14
14
04
04
04
04
04
ENDCHAR
STARTCHAR Idieresis
ENCODING 207
SWIDTH 153 0
DWIDTH 2 0
BBX 2 11 0 0
BITMAP
50
00
50
50
50
50
10
10
10
10
10
ENDCHAR
STARTCHAR Eth
ENCODING 208
SWIDTH 554 0
DWIDTH 7 0
BBX 7 9 0 0
BITMAP
1500
75A0
2014
2014
2020
2450
7980
1600
0800
ENDCHAR
STARTCHAR Ntilde
ENCODING 209
SWIDTH 541 0
DWIDTH 7 0
BBX 6 12 0 0
BITMAP
1440
5A80
0100
0050
4020
A020
6820
5520
5220
20A0
2030
2010
ENDCHAR
STARTCHAR Ograve
ENCODING 210
SWIDTH 382 0
DWIDTH 5 0
BBX 5 11 0 0
BITMAP
0500
0100
0000
1A00
2140
5140
8140
8140
8200
8600
7800
ENDCHAR
STARTCHAR Oacute
ENCODING 211
SWIDTH 382 0
DWIDTH 5 0
BBX 5 11 0 0
BITMAP
0400
1400
0000
1A00
2140
5140
8140
8140
8200
8600
7800
ENDCHAR
STARTCHAR Ocircumflex
ENCODING 212
SWIDTH 382 0
DWIDTH 5 0
BBX 5 11 0 0
BITMAP
2800
1200
4140
1A00
2140
5140
8140
8140
8200
8600
7800
ENDCHAR
STARTCHAR Otilde
ENCODING 213
SWIDTH 382 0
DWIDTH 5 0
BBX 5 11 0 0
BITMAP
1440
5A80
0100
1A00
2140
5140
8140
8140
8200
8600
7800
ENDCHAR
STARTCHAR Odieresis
ENCODING 214
SWIDTH 382 0
DWIDTH 5 0
BBX 5 10 0 0
BITMAP
0500
0000
1A00
2140
5140
8140
8140
8200
8600
7800
ENDCHAR
STARTCHAR multiply
ENCODING 215
SWIDTH 454 0
DWIDTH 5 0
BBX 3 5 1 1
BITMAP
44
58
30
98
04
ENDCHAR
STARTCHAR Oslash
ENCODING 216
SWIDTH 382 0
DWIDTH 5 0
BBX 5 10 0 -1
BITMAP
0100
1B00
2640
5540
8940
8540
9200
A600
7800
5000
ENDCHAR
STARTCHAR Ugrave
ENCODING 217
SWIDTH 450 0
DWIDTH 5 0
BBX 5 11 0 -1
BITMAP
0400
0800
0040
8080
80C0
80C0
81C0
8280
5280
2840
0040
ENDCHAR
STARTCHAR Uacute
ENCODING 218
SWIDTH 450 0
DWIDTH 5 0
BBX 5 10 0 -1
BITMAP
0100
0840
8080
80C0
80C0
81C0
8280
5280
2840
0040
ENDCHAR
STARTCHAR Ucircumflex
ENCODING 219
SWIDTH 450 0
DWIDTH 5 0
BBX 5 12 0 -1
BITMAP
1900
2200
5040
0040
8080
80C0
80C0
81C0
8280
5280
2840
0040
ENDCHAR
STARTCHAR Udieresis
ENCODING 220
SWIDTH 450 0
DWIDTH 5 0
BBX 5 10 0 -1
BITMAP
1600
0040
8080
80C0
80C0
81C0
8280
5280
2840
0040
ENDCHAR
STARTCHAR Yacute
ENCODING 221
SWIDTH 483 0
DWIDTH 6 0
BBX 6 12 0 0
BITMAP
0100
0500
0000
0010
4040
5080
2480
0A40
0300
0600
0500
0800
ENDCHAR
STARTCHAR Thorn
ENCODING 222
SWIDTH 398 0
DWIDTH 5 0
BBX 5 10 0 0
BITMAP
5000
4000
5A00
A140
9140
8200
9900
A000
8000
4000
ENDCHAR
STARTCHAR germandbls
ENCODING 223
SWIDTH 537 0
DWIDTH 6 0
BBX 6 9 0 0
BITMAP
0640
A480
5200
5A60
3810
2050
2180
2600
1000
ENDCHAR
STARTCHAR agrave
ENCODING 224
SWIDTH 366 0
DWIDTH 4 0
BBX 4 9 0 0
BITMAP
10
04
05
1A
22
5A
8A
A2
91
ENDCHAR
STARTCHAR aacute
ENCODING 225
SWIDTH 366 0
DWIDTH 4 0
BBX 4 9 0 0
BITMAP
04
08
05
1A
22
5A
8A
A2
91
ENDCHAR
STARTCHAR acircumflex
ENCODING 226
SWIDTH 366 0
DWIDTH 4 0
BBX 4 11 0 0
BITMAP
28
55
81
00
05
1A
22
5A
8A
A2
91
ENDCHAR
STARTCHAR atilde
ENCODING 227
SWIDTH 366 0
DWIDTH 4 0
BBX 5 10 0 0
BITMAP
2440
8A80
0100
0500
1A00
2200
5A00
8A00
A200
9100
ENDCHAR
STARTCHAR adieresis
ENCODING 228
SWIDTH 366 0
DWIDTH 4 0
BBX 4 9 0 0
BITMAP
25
00
05
1A
22
5A
8A
A2
91
ENDCHAR
STARTCHAR aring
ENCODING 229
SWIDTH 366 0
DWIDTH 4 0
BBX 4 8 0 0
BITMAP
26
2A
1A
22
5A
8A
A2
91
ENDCHAR
STARTCHAR ae
ENCODING 230
SWIDTH 705 0
DWIDTH 8 0
BBX 8 7 0 0
BITMAP
0524
1A89
23A4
5B81
8A42
A248
9190
ENDCHAR
STARTCHAR ccedilla
ENCODING 231
SWIDTH 390 0
DWIDTH 5 0
BBX 5 11 0 -4
BITMAP
2800
5800
8000
8000
8140
4200
2900
2000
1900
0700
1900
ENDCHAR
STARTCHAR egrave
ENCODING 232
SWIDTH 461 0
DWIDTH 6 0
BBX 5 9 0 0
BITMAP
0400
0400
0400
2600
2600
A400
9080
5140
2900
ENDCHAR
STARTCHAR eacute
ENCODING 233
SWIDTH 461 0
DWIDTH 6 0
BBX 5 9 0 0
BITMAP
0100
0500
0400
2600
2600
A400
9080
5140
2900
ENDCHAR
STARTCHAR ecircumflex
ENCODING 234
SWIDTH 461 0
DWIDTH 6 0
BBX 5 11 0 0
BITMAP
0900
2200
1040
0000
0400
2600
2600
A400
9080
5140
2900
ENDCHAR
STARTCHAR edieresis
ENCODING 235
SWIDTH 461 0
DWIDTH 6 0
BBX 5 9 0 0
BITMAP
1600
0000
0400
2600
2600
A400
9080
5140
2900
ENDCHAR
STARTCHAR igrave
ENCODING 236
SWIDTH 132 0
DWIDTH 2 0
BBX 1 10 0 0
BITMAP
40
80
00
40
80
80
80
80
80
40
ENDCHAR
STARTCHAR iacute
ENCODING 237
SWIDTH 132 0
DWIDTH 2 0
BBX 2 10 0 0
BITMAP
60
40
00
40
80
80
80
80
80
40
ENDCHAR
STARTCHAR icircumflex
ENCODING 238
SWIDTH 132 0
DWIDTH 2 0
BBX 4 11 -1 0
BITMAP
24
88
41
00
10
20
20
20
20
20
10
ENDCHAR
STARTCHAR idieresis
ENCODING 239
SWIDTH 132 0
DWIDTH 2 0
BBX 3 9 -1 0
BITMAP
58
00
10
20
20
20
20
20
10
ENDCHAR
STARTCHAR eth
ENCODING 240
SWIDTH 481 0
DWIDTH 6 0
BBX 5 8 1 0
BITMAP
1000
2400
1940
5900
6500
9A00
4900
A800
ENDCHAR
STARTCHAR ntilde
ENCODING 241
SWIDTH 483 0
DWIDTH 6 0
BBX 6 10 0 0
BITMAP
1800
2680
0100
4280
8980
9850
6450
7050
6050
6010
ENDCHAR
STARTCHAR ograve
ENCODING 242
SWIDTH 266 0
DWIDTH 3 0
BBX 3 9 0 0
BITMAP
10
20
20
54
88
88
88
88
A0
ENDCHAR
STARTCHAR oacute
ENCODING 243
SWIDTH 266 0
DWIDTH 3 0
BBX 3 9 0 0
BITMAP
04
20
20
54
88
88
88
88
A0
ENDCHAR
STARTCHAR ocircumflex
ENCODING 244
SWIDTH 266 0
DWIDTH 3 0
BBX 5 11 -1 0
BITMAP
1800
2200
5040
0000
0800
1500
2200
2200
2200
2200
2800
ENDCHAR
STARTCHAR otilde
ENCODING 245
SWIDTH 266 0
DWIDTH 3 0
BBX 5 10 -1 0
BITMAP
1440
5680
0100
0800
1500
2200
2200
2200
2200
2800
ENDCHAR
STARTCHAR odieresis
ENCODING 246
SWIDTH 266 0
DWIDTH 3 0
BBX 3 9 0 0
BITMAP
58
00
20
54
88
88
88
88
A0
ENDCHAR
STARTCHAR divide
ENCODING 247
SWIDTH 345 0
DWIDTH 4 0
BBX 4 4 0 1
BITMAP
10
69
00
04
ENDCHAR
STARTCHAR oslash
ENCODING 248
SWIDTH 266 0
DWIDTH 3 0
BBX 3 8 0 -1
BITMAP
28
58
9C
A8
A8
98
A0
40
ENDCHAR
STARTCHAR ugrave
ENCODING 249
SWIDTH 387 0
DWIDTH 5 0
BBX 4 9 0 0
BITMAP
10
04
00
41
82
82
83
5B
2A
ENDCHAR
STARTCHAR uacute
ENCODING 250
SWIDTH 387 0
DWIDTH 5 0
BBX 4 9 0 0
BITMAP
04
08
00
41
82
82
83
5B
2A
ENDCHAR
STARTCHAR ucircumflex
ENCODING 251
SWIDTH 387 0
DWIDTH 5 0
BBX 5 11 0 0
BITMAP
1800
2200
4140
0000
0000
4100
8200
8200
8300
5B00
2A00
ENDCHAR
STARTCHAR udieresis
ENCODING 252
SWIDTH 387 0
DWIDTH 5 0
BBX 4 9 0 0
BITMAP
21
00
00
41
82
82
83
5B
2A
ENDCHAR
STARTCHAR yacute
ENCODING 253
SWIDTH 363 0
DWIDTH 4 0
BBX 4 14 0 -5
BITMAP
04
08
00
41
52
22
1A
0B
03
02
02
02
02
01
ENDCHAR
STARTCHAR thorn
ENCODING 254
SWIDTH 439 0
DWIDTH 5 0
BBX 5 8 0 0
BITMAP
4100
9580
9080
8200
5800
6000
4000
8000
ENDCHAR
STARTCHAR ydieresis
ENCODING 255
SWIDTH 363 0
DWIDTH 4 0
BBX 4 14 0 -5
BITMAP
25
00
00
41
52
22
1A
0B
03
02
02
02
02
01
ENDCHAR
STARTCHAR Amacron
ENCODING 256
SWIDTH 390 0
DWIDTH 5 0
BBX 6 11 0 0
BITMAP
6A40
0000
2000
3400
2800
5400
5650
5740
6600
8140
4040
ENDCHAR
STARTCHAR amacron
ENCODING 257
SWIDTH 366 0
DWIDTH 4 0
BBX 5 9 0 0
BITMAP
6A40
0000
0500
1A00
2200
5A00
8A00
A200
9100
ENDCHAR
STARTCHAR Abreve
ENCODING 258
SWIDTH 390 0
DWIDTH 5 0
BBX 6 12 0 0
BITMAP
5500
2800
0000
2000
3400
2800
5400
5650
5740
6600
8140
4040
ENDCHAR
STARTCHAR abreve
ENCODING 259
SWIDTH 366 0
DWIDTH 4 0
BBX 4 9 0 0
BITMAP
12
18
05
1A
22
5A
8A
A2
91
ENDCHAR
STARTCHAR Aogonek
ENCODING 260
SWIDTH 390 0
DWIDTH 5 0
BBX 6 12 0 -3
BITMAP
2000
3400
2800
5400
5650
5740
6600
8140
4040
0200
0200
0290
ENDCHAR
STARTCHAR aogonek
ENCODING 261
SWIDTH 366 0
DWIDTH 4 0
BBX 5 10 0 -3
BITMAP
0500
1A00
2200
5A00
8A00
A200
9200
0500
0540
0140
ENDCHAR
STARTCHAR Cacute
ENCODING 262
SWIDTH 487 0
DWIDTH 6 0
BBX 6 11 0 0
BITMAP
0100
0500
0600
1400
2000
1000
5000
8010
8090
8140
6900
ENDCHAR
STARTCHAR cacute
ENCODING 263
SWIDTH 390 0
DWIDTH 5 0
BBX 5 10 0 0
BITMAP
0400
1400
0000
2800
5800
8000
8000
8140
4200
2900
ENDCHAR
STARTCHAR Ccircumflex
ENCODING 264
SWIDTH 487 0
DWIDTH 6 0
BBX 6 12 0 0
BITMAP
0900
1140
1040
0600
1400
2000
1000
5000
8010
8090
8140
6900
ENDCHAR
STARTCHAR ccircumflex
ENCODING 265
SWIDTH 390 0
DWIDTH 5 0
BBX 5 11 0 0
BITMAP
1800
2200
4140
0000
2800
5800
8000
8000
8140
4200
2900
ENDCHAR
STARTCHAR Cdotaccent
ENCODING 266
SWIDTH 487 0
DWIDTH 6 0
BBX 6 10 0 0
BITMAP
0400
0600
1400
2000
1000
5000
8010
8090
8140
6900
ENDCHAR
STARTCHAR cdotaccent
ENCODING 267
SWIDTH 390 0
DWIDTH 5 0
BBX 5 8 0 0
BITMAP
1000
2800
5800
8000
8000
8140
8200
2900
ENDCHAR
STARTCHAR Ccaron
ENCODING 268
SWIDTH 487 0
DWIDTH 6 0
BBX 6 12 0 0
BITMAP
1040
1540
0400
0600
1400
2000
1000
5000
8010
8090
8140
6900
ENDCHAR
STARTCHAR ccaron
ENCODING 269
SWIDTH 390 0
DWIDTH 5 0
BBX 5 10 0 0
BITMAP
4000
2500
1400
2800
5800
8000
8000
8140
4200
2900
ENDCHAR
STARTCHAR Dcaron
ENCODING 270
SWIDTH 554 0
DWIDTH 7 0
BBX 7 12 0 0
BITMAP
1010
0840
0100
1500
75A0
2014
2014
2020
2050
1180
1600
0800
ENDCHAR
STARTCHAR Emacron
ENCODING 274
SWIDTH 474 0
DWIDTH 6 0
BBX 6 10 0 0
BITMAP
6A40
4140
6800
5000
5140
6900
2000
2090
2600
2400
ENDCHAR
STARTCHAR emacron
ENCODING 275
SWIDTH 461 0
DWIDTH 6 0
BBX 5 9 0 0
BITMAP
2A80
0000
0400
2600
2600
A400
9080
5140
2900
ENDCHAR
STARTCHAR Ebreve
ENCODING 276
SWIDTH 474 0
DWIDTH 6 0
BBX 6 11 0 0
BITMAP
1140
0A00
4140
6800
5000
5140
6900
2000
2090
2600
2400
ENDCHAR
STARTCHAR ebreve
ENCODING 277
SWIDTH 461 0
DWIDTH 6 0
BBX 5 9 0 0
BITMAP
1140
0A00
0400
2600
2600
A400
9080
5140
2900
ENDCHAR
STARTCHAR Edotaccent
ENCODING 278
SWIDTH 474 0
DWIDTH 6 0
BBX 6 10 0 0
BITMAP
0400
4540
6800
5000
5140
6900
2000
2090
2600
2400
ENDCHAR
STARTCHAR edotaccent
ENCODING 279
SWIDTH 461 0
DWIDTH 6 0
BBX 5 7 0 0
BITMAP
0900
2600
2600
A400
9080
5140
2900
ENDCHAR
STARTCHAR Eogonek
ENCODING 280
SWIDTH 474 0
DWIDTH 6 0
BBX 6 10 0 -1
BITMAP
4140
6800
5000
5140
6900
2000
2090
2600
2900
0680
ENDCHAR
STARTCHAR eogonek
ENCODING 281
SWIDTH 461 0
DWIDTH 6 0
BBX 5 10 0 -3
BITMAP
0400
2600
2600
A400
9080
5140
2900
1400
1540
0500
ENDCHAR
STARTCHAR Ecaron
ENCODING 282
SWIDTH 474 0
DWIDTH 6 0
BBX 6 11 0 0
BITMAP
1040
2200
4940
6800
5000
5140
6900
2000
2090
2600
2400
ENDCHAR
STARTCHAR ecaron
ENCODING 283
SWIDTH 461 0
DWIDTH 6 0
BBX 5 10 0 0
BITMAP
1040
1100
0400
0400
2600
2600
A400
9080
5140
2900
ENDCHAR
STARTCHAR Gcircumflex
ENCODING 284
SWIDTH 591 0
DWIDTH 7 0
BBX 7 12 0 -1
BITMAP
0600
0880
1410
0180
0900
1400
2068
5024
8070
81A0
6920
0020
ENDCHAR
STARTCHAR gcircumflex
ENCODING 285
SWIDTH 437 0
DWIDTH 5 0
BBX 5 16 0 -5
BITMAP
1800
2200
5040
0000
0600
1640
2280
5580
8880
A480
1080
0080
0080
0140
0200
1900
ENDCHAR
STARTCHAR Gbreve
ENCODING 286
SWIDTH 591 0
DWIDTH 7 0
BBX 7 11 0 -1
BITMAP
0450
0280
0180
0900
1400
2068
5024
8070
81A0
6920
0020
ENDCHAR
STARTCHAR gbreve
ENCODING 287
SWIDTH 437 0
DWIDTH 5 0
BBX 5 15 0 -5
BITMAP
1100
0900
0000
0600
1640
2280
5580
8880
A480
1080
0080
0080
0140
0200
1900
ENDCHAR
STARTCHAR Gdotaccent
ENCODING 288
SWIDTH 591 0
DWIDTH 7 0
BBX 7 11 0 -1
BITMAP
0100
0100
0180
0500
0400
2068
1024
5074
51A0
2924
0014
ENDCHAR
STARTCHAR gdotaccent
ENCODING 289
SWIDTH 437 0
DWIDTH 5 0
BBX 5 14 0 -5
BITMAP
0100
0100
0600
1640
2280
5580
8880
A480
1080
0080
0080
0140
0200
1900
ENDCHAR
STARTCHAR Gcommaaccent
ENCODING 290
SWIDTH 591 0
DWIDTH 7 0
BBX 7 12 0 -4
BITMAP
0180
0900
1400
2068
5024
8070
81A0
6920
0020
0200
0200
0100
ENDCHAR
STARTCHAR Hcircumflex
ENCODING 292
SWIDTH 424 0
DWIDTH 5 0
BBX 5 12 0 0
BITMAP
1800
2200
4140
0000
8200
8100
8140
8240
6940
5080
4080
5080
ENDCHAR
STARTCHAR hcircumflex
ENCODING 293
SWIDTH 466 0
DWIDTH 6 0
BBX 6 11 0 0
BITMAP
0240
0880
5410
8000
8000
8680
8D50
9850
A050
A050
4050
ENDCHAR
STARTCHAR Hbar
ENCODING 294
SWIDTH 424 0
DWIDTH 5 0
BBX 5 8 0 0
BITMAP
8200
8140
AA40
8240
A940
5080
4080
5080
ENDCHAR
STARTCHAR hbar
ENCODING 295
SWIDTH 466 0
DWIDTH 6 0
BBX 7 9 -1 0
BITMAP
1000
2000
2540
65A0
2354
2614
2814
2814
1014
ENDCHAR
STARTCHAR Itilde
ENCODING 296
SWIDTH 153 0
DWIDTH 2 0
BBX 4 12 -1 0
BITMAP
50
9A
04
14
14
14
14
04
04
04
04
04
ENDCHAR
STARTCHAR itilde
ENCODING 297
SWIDTH 132 0
DWIDTH 2 0
BBX 5 10 -2 0
BITMAP
1400
5980
0100
0400
0800
0800
0800
0800
0800
0400
ENDCHAR
STARTCHAR imacron
ENCODING 299
SWIDTH 132 0
DWIDTH 2 0
BBX 4 9 -1 0
BITMAP
AA
00
10
20
20
20
20
20
10
ENDCHAR
STARTCHAR Ibreve
ENCODING 300
SWIDTH 153 0
DWIDTH 2 0
BBX 4 12 -1 0
BITMAP
55
28
00
14
14
14
14
04
04
04
04
04
ENDCHAR
STARTCHAR ibreve
ENCODING 301
SWIDTH 132 0
DWIDTH 2 0
BBX 3 9 -1 0
BITMAP
68
00
10
20
20
20
20
20
10
ENDCHAR
STARTCHAR Iogonek
ENCODING 302
SWIDTH 153 0
DWIDTH 2 0
BBX 3 12 0 -3
BITMAP
50
50
50
50
10
10
10
10
50
80
98
10
ENDCHAR
STARTCHAR iogonek
ENCODING 303
SWIDTH 132 0
DWIDTH 2 0
BBX 3 12 -1 -3
BITMAP
10
00
10
20
20
20
20
20
20
20
50
28
ENDCHAR
STARTCHAR Idotaccent
ENCODING 304
SWIDTH 153 0
DWIDTH 2 0
BBX 2 10 0 0
BITMAP
40
40
50
50
50
50
50
50
50
10
ENDCHAR
STARTCHAR dotlessi
ENCODING 305
SWIDTH 132 0
DWIDTH 2 0
BBX 1 7 0 0
BITMAP
40
80
80
80
80
80
40
ENDCHAR
STARTCHAR Jcircumflex
ENCODING 308
SWIDTH 371 0
DWIDTH 4 0
BBX 5 13 0 -1
BITMAP
0900
1540
2040
0100
0100
0200
0200
0200
0200
0200
4200
4200
1500
ENDCHAR
STARTCHAR jcircumflex
ENCODING 309
SWIDTH 112 0
DWIDTH 1 0
BBX 5 15 -2 -4
BITMAP
1900
2200
5040
0000
0000
0800
0800
0800
0800
0800
0500
0500
0500
4800
6800
ENDCHAR
STARTCHAR Kcommaaccent
ENCODING 310
SWIDTH 524 0
DWIDTH 6 0
BBX 6 12 0 -4
BITMAP
8040
5200
5500
5800
3000
3550
2550
1000
0000
0500
0500
0500
ENDCHAR
STARTCHAR kcommaaccent
ENCODING 311
SWIDTH 428 0
DWIDTH 5 0
BBX 5 13 0 -4
BITMAP
5000
5000
5080
5240
9600
9800
A000
A900
8180
0000
0800
0800
0400
ENDCHAR
STARTCHAR Lacute
ENCODING 313
SWIDTH 537 0
DWIDTH 6 0
BBX 7 9 0 0
BITMAP
0100
4200
9000
9000
9000
5000
5024
5280
6800
ENDCHAR
STARTCHAR lacute
ENCODING 314
SWIDTH 137 0
DWIDTH 2 0
BBX 2 14 0 0
BITMAP
10
80
00
00
80
80
40
40
40
50
50
50
50
50
ENDCHAR
STARTCHAR Lcommaaccent
ENCODING 315
SWIDTH 537 0
DWIDTH 6 0
BBX 7 12 0 -4
BITMAP
4000
9000
9000
9000
5000
5024
5280
6800
0000
0100
0600
0500
ENDCHAR
STARTCHAR lcommaaccent
ENCODING 316
SWIDTH 137 0
DWIDTH 2 0
BBX 2 14 0 -4
BITMAP
80
80
40
40
40
50
50
50
50
50
00
40
80
40
ENDCHAR
STARTCHAR Lcaron
ENCODING 317
SWIDTH 537 0
DWIDTH 6 0
BBX 7 11 0 0
BITMAP
1040
2200
0400
4000
9000
9000
9000
5000
5024
5280
6800
ENDCHAR
STARTCHAR Ldot
ENCODING 319
SWIDTH 537 0
DWIDTH 6 0
BBX 7 8 0 0
BITMAP
4000
9000
9000
9000
5100
5124
5280
6800
ENDCHAR
STARTCHAR ldot
ENCODING 320
SWIDTH 267 0
DWIDTH 3 0
BBX 3 10 0 0
BITMAP
80
80
40
40
40
50
54
54
50
50
ENDCHAR
STARTCHAR Lslash
ENCODING 321
SWIDTH 537 0
DWIDTH 6 0
BBX 8 8 -1 0
BITMAP
1000
2400
2400
2400
1A80
6409
14A0
1A00
ENDCHAR
STARTCHAR lslash
ENCODING 322
SWIDTH 137 0
DWIDTH 2 0
BBX 4 10 -1 0
BITMAP
20
20
10
10
10
14
1A
A4
14
14
ENDCHAR
STARTCHAR Nacute
ENCODING 323
SWIDTH 541 0
DWIDTH 7 0
BBX 6 10 0 0
BITMAP
0500
0850
4020
A020
6820
5520
5220
20A0
2030
2010
ENDCHAR
STARTCHAR nacute
ENCODING 324
SWIDTH 483 0
DWIDTH 6 0
BBX 6 9 0 0
BITMAP
0100
0800
4280
8980
9850
6450
7050
6050
6010
ENDCHAR
STARTCHAR Ncommaaccent
ENCODING 325
SWIDTH 541 0
DWIDTH 7 0
BBX 6 13 0 -4
BITMAP
0050
4020
A020
6820
5520
5220
20A0
2030
2010
0000
0100
0200
0100
ENDCHAR
STARTCHAR ncommaaccent
ENCODING 326
SWIDTH 483 0
DWIDTH 6 0
BBX 6 11 0 -4
BITMAP
4280
8980
9850
6450
7050
6050
6010
0000
0500
0900
0400
ENDCHAR
STARTCHAR Ncaron
ENCODING 327
SWIDTH 541 0
DWIDTH 7 0
BBX 6 11 0 0
BITMAP
1040
1540
0550
4020
A020
6820
5520
5220
20A0
2030
2010
ENDCHAR
STARTCHAR ncaron
ENCODING 328
SWIDTH 483 0
DWIDTH 6 0
BBX 6 10 0 0
BITMAP
1040
1540
0400
4280
8980
9850
6450
7050
6050
6010
ENDCHAR
STARTCHAR napostrophe
ENCODING 329
SWIDTH 483 0
DWIDTH 6 0
BBX 6 11 0 0
BITMAP
1400
1400
1000
0000
4280
8980
9850
6450
7050
6050
6010
ENDCHAR
STARTCHAR Omacron
ENCODING 332
SWIDTH 382 0
DWIDTH 5 0
BBX 5 10 0 0
BITMAP
2A80
0000
1A00
2140
5140
8140
8140
8200
8600
7800
ENDCHAR
STARTCHAR omacron
ENCODING 333
SWIDTH 266 0
DWIDTH 3 0
BBX 5 9 -1 0
BITMAP
6A40
0000
0800
1500
2200
2200
2200
2200
2800
ENDCHAR
STARTCHAR Obreve
ENCODING 334
SWIDTH 382 0
DWIDTH 5 0
BBX 5 10 0 0
BITMAP
1200
1900
1A00
2140
5140
8140
8140
8200
8600
7800
ENDCHAR
STARTCHAR obreve
ENCODING 335
SWIDTH 266 0
DWIDTH 3 0
BBX 3 9 0 0
BITMAP
44
24
20
54
88
88
88
88
A0
ENDCHAR
STARTCHAR Ohungarumlaut
ENCODING 336
SWIDTH 382 0
DWIDTH 5 0
BBX 5 10 0 0
BITMAP
0A80
0100
1A00
2140
5140
8140
8140
8200
8600
7800
ENDCHAR
STARTCHAR ohungarumlaut
ENCODING 337
SWIDTH 266 0
DWIDTH 3 0
BBX 3 10 0 0
BITMAP
10
68
00
20
54
88
88
88
88
A0
ENDCHAR
STARTCHAR OE
ENCODING 338
SWIDTH 732 0
DWIDTH 9 0
BBX 9 9 0 0
BITMAP
000500
1BA400
218000
514100
819800
81D000
828140
868900
78D000
ENDCHAR
STARTCHAR oe
ENCODING 339
SWIDTH 628 0
DWIDTH 8 0
BBX 8 7 0 0
BITMAP
2050
5594
8A60
8B40
8A09
8A18
A190
ENDCHAR
STARTCHAR Racute
ENCODING 340
SWIDTH 503 0
DWIDTH 6 0
BBX 6 12 0 0
BITMAP
0100
0200
4000
A9A0
9050
8240
A800
A000
9900
8190
8010
4000
ENDCHAR
STARTCHAR racute
ENCODING 341
SWIDTH 396 0
DWIDTH 5 0
BBX 5 9 0 0
BITMAP
0500
0800
0000
8A40
9400
6400
7000
3000
2000
ENDCHAR
STARTCHAR Rcommaaccent
ENCODING 342
SWIDTH 503 0
DWIDTH 6 0
BBX 6 14 0 -4
BITMAP
4000
A9A0
9050
8240
A800
A000
9900
8190
8010
4000
0000
0500
0500
0400
ENDCHAR
STARTCHAR rcommaaccent
ENCODING 343
SWIDTH 396 0
DWIDTH 5 0
BBX 5 10 0 -4
BITMAP
8A40
9400
6400
7000
3000
2000
0000
0800
0800
0400
ENDCHAR
STARTCHAR Rcaron
ENCODING 344
SWIDTH 503 0
DWIDTH 6 0
BBX 6 13 0 0
BITMAP
1040
0540
0500
4000
A9A0
9050
8240
A800
A000
9900
8190
8010
4000
ENDCHAR
STARTCHAR rcaron
ENCODING 345
SWIDTH 396 0
DWIDTH 5 0
BBX 5 10 0 0
BITMAP
4000
2500
1400
0000
8A40
9400
6400
7000
3000
2000
ENDCHAR
STARTCHAR Sacute
ENCODING 346
SWIDTH 541 0
DWIDTH 7 0
BBX 6 11 0 0
BITMAP
0100
0200
0280
1400
5000
8000
8000
1550
0020
0190
1900
ENDCHAR
STARTCHAR sacute
ENCODING 347
SWIDTH 366 0
DWIDTH 4 0
BBX 5 9 0 0
BITMAP
0400
0800
0000
1900
5000
8100
6A40
0200
1800
ENDCHAR
STARTCHAR Scircumflex
ENCODING 348
SWIDTH 541 0
DWIDTH 7 0
BBX 6 12 0 0
BITMAP
0600
0880
1010
0280
1400
5000
8000
8000
1550
0020
0190
1900
ENDCHAR
STARTCHAR scircumflex
ENCODING 349
SWIDTH 366 0
DWIDTH 4 0
BBX 5 9 0 0
BITMAP
1800
2200
4140
1900
5000
8100
6A40
0200
1800
ENDCHAR
STARTCHAR Scedilla
ENCODING 350
SWIDTH 541 0
DWIDTH 7 0
BBX 7 13 0 -4
BITMAP
0280
1400
5000
8000
8000
1550
0020
0190
1940
0080
00A0
0028
0090
ENDCHAR
STARTCHAR scedilla
ENCODING 351
SWIDTH 366 0
DWIDTH 4 0
BBX 5 10 0 -4
BITMAP
1900
5000
8100
6A40
0200
1800
1400
0A00
0240
0A00
ENDCHAR
STARTCHAR Scaron
ENCODING 352
SWIDTH 541 0
DWIDTH 7 0
BBX 6 11 0 0
BITMAP
1040
0540
0680
1400
5000
8000
8000
1550
0020
0190
1900
ENDCHAR
STARTCHAR scaron
ENCODING 353
SWIDTH 366 0
DWIDTH 4 0
BBX 5 9 0 0
BITMAP
4100
1500
1400
1900
5000
8100
6A40
0200
1800
ENDCHAR
STARTCHAR Tcommaaccent
ENCODING 354
SWIDTH 595 0
DWIDTH 7 0
BBX 8 13 0 -4
BITMAP
0055
6A94
0080
0080
0080
0080
0080
0080
0040
0000
0050
0060
0050
ENDCHAR
STARTCHAR tcommaaccent
ENCODING 355
SWIDTH 268 0
DWIDTH 3 0
BBX 4 13 -1 -4
BITMAP
14
14
1A
79
14
14
14
14
08
00
08
08
04
ENDCHAR
STARTCHAR Tcaron
ENCODING 356
SWIDTH 595 0
DWIDTH 7 0
BBX 8 12 0 0
BITMAP
0004
0220
0040
0055
6A94
0080
0080
0080
0080
0080
0080
0040
ENDCHAR
STARTCHAR Tbar
ENCODING 358
SWIDTH 595 0
DWIDTH 7 0
BBX 8 9 0 0
BITMAP
0055
6A94
0080
06E0
0080
0080
0080
0080
0040
ENDCHAR
STARTCHAR Utilde
ENCODING 360
SWIDTH 450 0
DWIDTH 5 0
BBX 5 12 0 -1
BITMAP
1440
5680
0100
0040
8080
80C0
80C0
81C0
8280
5280
2840
0040
ENDCHAR
STARTCHAR utilde
ENCODING 361
SWIDTH 387 0
DWIDTH 5 0
BBX 5 9 0 0
BITMAP
6000
8A40
0500
4100
8200
8200
8300
5B00
2A00
ENDCHAR
STARTCHAR Umacron
ENCODING 362
SWIDTH 450 0
DWIDTH 5 0
BBX 5 10 0 -1
BITMAP
6A80
0040
8080
80C0
80C0
81C0
8280
5280
2840
0040
ENDCHAR
STARTCHAR umacron
ENCODING 363
SWIDTH 387 0
DWIDTH 5 0
BBX 5 9 0 0
BITMAP
6A40
0000
0000
4100
8200
8200
8300
5B00
2A00
ENDCHAR
STARTCHAR Ubreve
ENCODING 364
SWIDTH 450 0
DWIDTH 5 0
BBX 5 10 0 -1
BITMAP
1140
0A40
8080
80C0
80C0
81C0
8280
5280
2840
0040
ENDCHAR
STARTCHAR ubreve
ENCODING 365
SWIDTH 387 0
DWIDTH 5 0
BBX 4 9 0 0
BITMAP
12
19
00
41
82
82
83
5B
2A
ENDCHAR
STARTCHAR Uring
ENCODING 366
SWIDTH 450 0
DWIDTH 5 0
BBX 5 11 0 -1
BITMAP
2A00
1600
0040
8080
80C0
80C0
81C0
8280
5280
2840
0040
ENDCHAR
STARTCHAR uring
ENCODING 367
SWIDTH 387 0
DWIDTH 5 0
BBX 4 8 0 0
BITMAP
2A
25
41
82
82
83
5B
2A
ENDCHAR
STARTCHAR Uhungarumlaut
ENCODING 368
SWIDTH 450 0
DWIDTH 5 0
BBX 5 12 0 -1
BITMAP
0400
1A00
0000
0040
8080
80C0
80C0
81C0
8280
5280
2840
0040
ENDCHAR
STARTCHAR uhungarumlaut
ENCODING 369
SWIDTH 387 0
DWIDTH 5 0
BBX 4 8 0 0
BITMAP
29
04
41
82
82
83
5B
2A
ENDCHAR
STARTCHAR Uogonek
ENCODING 370
SWIDTH 450 0
DWIDTH 5 0
BBX 6 12 0 -4
BITMAP
0040
8080
80C0
80C0
81C0
8280
5280
2840
0080
0140
01A0
0040
ENDCHAR
STARTCHAR uogonek
ENCODING 371
SWIDTH 387 0
DWIDTH 5 0
BBX 5 9 0 -3
BITMAP
4100
8200
8200
8300
5B00
2A00
0600
0400
0280
ENDCHAR
STARTCHAR Wcircumflex
ENCODING 372
SWIDTH 878 0
DWIDTH 11 0
BBX 10 12 0 0
BITMAP
00A000
004800
020500
000010
401020
903020
205450
208880
248880
154280
0A0240
0A0000
ENDCHAR
STARTCHAR wcircumflex
ENCODING 373
SWIDTH 566 0
DWIDTH 7 0
BBX 7 11 0 0
BITMAP
0600
0880
1050
0000
0000
8614
5654
2894
2C64
0C24
0800
ENDCHAR
STARTCHAR Ycircumflex
ENCODING 374
SWIDTH 483 0
DWIDTH 6 0
BBX 6 13 0 0
BITMAP
0900
1140
1080
0000
0010
4040
5080
2480
0A40
0300
0600
0500
0800
ENDCHAR
STARTCHAR ycircumflex
ENCODING 375
SWIDTH 363 0
DWIDTH 4 0
BBX 4 16 0 -5
BITMAP
28
55
81
00
00
41
52
22
1A
0B
03
02
02
02
02
01
ENDCHAR
STARTCHAR Ydieresis
ENCODING 376
SWIDTH 483 0
DWIDTH 6 0
BBX 6 9 0 0
BITMAP
0510
4040
5080
2480
0A40
0300
0600
0500
0800
ENDCHAR
STARTCHAR Zacute
ENCODING 377
SWIDTH 670 0
DWIDTH 8 0
BBX 8 11 0 0
BITMAP
0040
0200
1500
5568
0060
0080
0240
0900
1800
2000
BAAA
ENDCHAR
STARTCHAR zacute
ENCODING 378
SWIDTH 618 0
DWIDTH 7 0
BBX 8 9 0 0
BITMAP
0040
0240
0000
0680
6540
0200
0500
0819
0E94
ENDCHAR
STARTCHAR Zdotaccent
ENCODING 379
SWIDTH 670 0
DWIDTH 8 0
BBX 8 9 0 0
BITMAP
1540
5568
0060
0080
0240
0900
1800
2000
BAAA
ENDCHAR
STARTCHAR zdotaccent
ENCODING 380
SWIDTH 618 0
DWIDTH 7 0
BBX 8 8 0 0
BITMAP
0100
0100
0680
6540
0200
0500
0819
0E94
ENDCHAR
STARTCHAR Zcaron
ENCODING 381
SWIDTH 670 0
DWIDTH 8 0
BBX 8 12 0 0
BITMAP
0410
0150
0140
1500
5568
0060
0080
0240
0900
1800
2000
BAAA
ENDCHAR
STARTCHAR zcaron
ENCODING 382
SWIDTH 618 0
DWIDTH 7 0
BBX 8 9 0 0
BITMAP
1000
0940
0500
0680
6540
0200
0500
0819
0E94
ENDCHAR
STARTCHAR florin
ENCODING 402
SWIDTH 345 0
DWIDTH 4 0
BBX 4 14 0 -3
BITMAP
18
25
20
20
20
2A
60
20
20
20
20
20
20
A0
ENDCHAR
STARTCHAR AEacute
ENCODING 508
SWIDTH 708 0
DWIDTH 9 0
BBX 8 12 0 0
BITMAP
0100
0200
0000
2119
36A0
2940
5544
56A0
5780
6642
8198
4190
ENDCHAR
STARTCHAR aeacute
ENCODING 509
SWIDTH 705 0
DWIDTH 8 0
BBX 8 9 0 0
BITMAP
0040
0080
0524
1A89
23A4
5B81
8A42
A248
9190
ENDCHAR
STARTCHAR Oslashacute
ENCODING 510
SWIDTH 382 0
DWIDTH 5 0
BBX 5 12 0 -1
BITMAP
0100
0800
0100
1B00
2640
5540
8940
8540
9200
A600
7800
5000
ENDCHAR
STARTCHAR oslashacute
ENCODING 511
SWIDTH 266 0
DWIDTH 3 0
BBX 3 10 0 -1
BITMAP
04
20
28
58
9C
A8
A8
98
A0
40
ENDCHAR
STARTCHAR Scommaaccent
ENCODING 536
SWIDTH 541 0
DWIDTH 7 0
BBX 6 13 0 -4
BITMAP
0280
1400
5000
8000
8000
1550
0020
0190
1900
0000
0100
0200
0100
ENDCHAR
STARTCHAR scommaaccent
ENCODING 537
SWIDTH 366 0
DWIDTH 4 0
BBX 5 10 0 -4
BITMAP
1900
5000
8100
6A40
0200
1800
0000
1400
1800
1400
ENDCHAR
STARTCHAR circumflex
ENCODING 710
SWIDTH 390 0
DWIDTH 5 0
BBX 5 3 0 8
BITMAP
1800
2200
4140
ENDCHAR
STARTCHAR caron
ENCODING 711
SWIDTH 390 0
DWIDTH 5 0
BBX 4 3 1 7
BITMAP
41
88
10
ENDCHAR
STARTCHAR breve
ENCODING 728
SWIDTH 390 0
DWIDTH 5 0
BBX 3 2 1 7
BITMAP
44
60
ENDCHAR
STARTCHAR dotaccent
ENCODING 729
SWIDTH 128 0
DWIDTH 2 0
BBX 1 2 0 6
BITMAP
40
40
ENDCHAR
STARTCHAR ring
ENCODING 730
SWIDTH 266 0
DWIDTH 3 0
BBX 3 2 0 6
BITMAP
98
98
ENDCHAR
STARTCHAR ogonek
ENCODING 731
SWIDTH 366 0
DWIDTH 4 0
BBX 3 3 1 -3
BITMAP
50
80
68
ENDCHAR
STARTCHAR tilde
ENCODING 732
SWIDTH 458 0
DWIDTH 6 0
BBX 5 3 0 6
BITMAP
1440
5A80
0100
ENDCHAR
STARTCHAR hungarumlaut
ENCODING 733
SWIDTH 239 0
DWIDTH 3 0
BBX 3 3 0 5
BITMAP
10
A8
10
ENDCHAR
STARTCHAR Wgrave
ENCODING 7808
SWIDTH 878 0
DWIDTH 11 0
BBX 10 12 0 0
BITMAP
005000
002000
000000
000010
401020
903020
205450
208880
248880
154280
0A0240
0A0000
ENDCHAR
STARTCHAR wgrave
ENCODING 7809
SWIDTH 566 0
DWIDTH 7 0
BBX 7 9 0 0
BITMAP
0500
0200
0000
8614
5654
2894
2C64
0C24
0800
ENDCHAR
STARTCHAR Wacute
ENCODING 7810
SWIDTH 878 0
DWIDTH 11 0
BBX 10 11 0 0
BITMAP
001000
008000
000010
401020
903020
205450
208880
248880
154280
0A0240
0A0000
ENDCHAR
STARTCHAR wacute
ENCODING 7811
SWIDTH 566 0
DWIDTH 7 0
BBX 7 9 0 0
BITMAP
0140
0200
0000
8614
5654
2894
2C64
0C24
0800
ENDCHAR
STARTCHAR Wdieresis
ENCODING 7812
SWIDTH 878 0
DWIDTH 11 0
BBX 10 10 0 0
BITMAP
008400
000010
401020
903020
205450
208880
248880
154280
0A0240
0A0000
ENDCHAR
STARTCHAR wdieresis
ENCODING 7813
SWIDTH 566 0
DWIDTH 7 0
BBX 7 9 0 0
BITMAP
0440
0000
0000
8614
5654
2894
2C64
0C24
0800
ENDCHAR
STARTCHAR Ygrave
ENCODING 7922
SWIDTH 483 0
DWIDTH 6 0
BBX 6 12 0 0
BITMAP
0400
0500
0000
0010
4040
5080
2480
0A40
0300
0600
0500
0800
ENDCHAR
STARTCHAR ygrave
ENCODING 7923
SWIDTH 363 0
DWIDTH 4 0
BBX 4 14 0 -5
BITMAP
10
04
00
41
52
22
1A
0B
03
02
02
02
02
01
ENDCHAR
STARTCHAR endash
ENCODING 8211
SWIDTH 399 0
DWIDTH 5 0
BBX 5 2 0 2
BITMAP
0640
6400
ENDCHAR
STARTCHAR emdash
ENCODING 8212
SWIDTH 549 0
DWIDTH 7 0
BBX 6 2 0 2
BITMAP
01A0
6900
ENDCHAR
STARTCHAR quoteleft
ENCODING 8216
SWIDTH 155 0
DWIDTH 2 0
BBX 2 4 0 4
BITMAP
40
90
50
40
ENDCHAR
STARTCHAR quoteright
ENCODING 8217
SWIDTH 155 0
DWIDTH 2 0
BBX 2 4 0 4
BITMAP
40
90
50
40
ENDCHAR
STARTCHAR quotesinglbase
ENCODING 8218
SWIDTH 155 0
DWIDTH 2 0
BBX 2 3 0 0
BITMAP
50
50
50
ENDCHAR
STARTCHAR quotedblleft
ENCODING 8220
SWIDTH 212 0
DWIDTH 3 0
BBX 2 4 0 6
BITMAP
40
90
90
50
ENDCHAR
STARTCHAR quotedblright
ENCODING 8221
SWIDTH 212 0
DWIDTH 3 0
BBX 2 4 0 6
BITMAP
40
90
90
50
ENDCHAR
STARTCHAR quotedblbase
ENCODING 8222
SWIDTH 212 0
DWIDTH 3 0
BBX 2 4 0 0
BITMAP
40
90
50
50
ENDCHAR
STARTCHAR dagger
ENCODING 8224
SWIDTH 268 0
DWIDTH 3 0
BBX 4 9 -1 0
BITMAP
14
14
1A
79
14
14
14
14
08
ENDCHAR
STARTCHAR daggerdbl
ENCODING 8225
SWIDTH 326 0
DWIDTH 4 0
BBX 4 9 0 0
BITMAP
20
20
26
74
6A
70
20
20
20
ENDCHAR
STARTCHAR bullet
ENCODING 8226
SWIDTH 189 0
DWIDTH 2 0
BBX 2 2 0 3
BITMAP
10
70
ENDCHAR
STARTCHAR ellipsis
ENCODING 8230
SWIDTH 387 0
DWIDTH 5 0
BBX 4 1 0 0
BITMAP
45
ENDCHAR
STARTCHAR guilsinglleft
ENCODING 8249
SWIDTH 409 0
DWIDTH 5 0
BBX 5 7 0 1
BITMAP
0040
0240
0900
6000
2400
0640
0040
ENDCHAR
STARTCHAR guilsinglright
ENCODING 8250
SWIDTH 450 0
DWIDTH 5 0
BBX 5 7 0 1
BITMAP
6000
1900
0180
0140
0900
2400
4000
ENDCHAR
STARTCHAR fraction
ENCODING 8260
SWIDTH 306 0
DWIDTH 4 0
BBX 3 9 0 -1
BITMAP
04
08
04
10
20
10
50
80
40
ENDCHAR
STARTCHAR Euro
ENCODING 8364
SWIDTH 589 0
DWIDTH 7 0
BBX 7 9 0 0
BITMAP
0180
0210
0800
0800
6900
1540
6500
1418
0A90
ENDCHAR
STARTCHAR trademark
ENCODING 8482
SWIDTH 1278 0
DWIDTH 15 0
BBX 15 9 0 0
BITMAP
00568020
6A959030
00816050
00805494
00808854
00808704
00808108
00808008
00408008
ENDCHAR
STARTCHAR minus
ENCODING 8722
SWIDTH 358 0
DWIDTH 4 0
BBX 4 1 0 3
BITMAP
6A
ENDCHAR
STARTCHAR commaaccent
ENCODING 63171
SWIDTH 450 0
DWIDTH 5 0
BBX 1 3 2 -4
BITMAP
80
80
40
ENDCHAR
STARTCHAR fi
ENCODING 64257
SWIDTH 409 0
DWIDTH 5 0
BBX 5 11 0 0
BITMAP
1800
2500
2100
2000
2140
2B40
6140
2140
2140
2140
2140
ENDCHAR
STARTCHAR fl
ENCODING 64258
SWIDTH 416 0
DWIDTH 5 0
BBX 5 11 0 0
BITMAP
1800
2600
2140
2140
2140
2A40
6040
2040
2040
2080
2080
ENDCHAR
STARTCHAR .notdef
ENCODING -1
SWIDTH 450 0
DWIDTH 5 0
BBX 1 1 0 0
BITMAP
00
ENDCHAR
STARTCHAR .null
ENCODING -1
SWIDTH 0 0
DWIDTH 0 0
BBX 1 1 0 0
BITMAP
00
ENDCHAR
STARTCHAR nonmarkingreturn
ENCODING -1
SWIDTH 450 0
DWIDTH 5 0
BBX 1 1 0 0
BITMAP
00
ENDCHAR
ENDFONT
